<svg width="71" height="71" viewBox="0 0 71 71" fill="none" xmlns="http://www.w3.org/2000/svg">
<path d="M64.7875 26.2996L61.6812 13.3717C61.0304 10.7092 58.7229 8.875 56.0308 8.875H14.9395C12.277 8.875 9.93996 10.7387 9.31871 13.3717L6.21246 26.2996C5.50246 29.3171 6.15329 32.3938 8.04663 34.8196C8.28329 35.145 8.60871 35.3817 8.87496 35.6775V56.2083C8.87496 59.4625 11.5375 62.125 14.7916 62.125H56.2083C59.4625 62.125 62.125 59.4625 62.125 56.2083V35.6775C62.3912 35.4113 62.7166 35.145 62.9533 34.8492C64.8466 32.4233 65.527 29.3171 64.7875 26.2996ZM55.942 14.7621L59.0483 27.69C59.3441 28.9325 59.0779 30.175 58.3087 31.1512C57.8945 31.6837 57.007 32.5417 55.5279 32.5417C53.7233 32.5417 52.1554 31.0921 51.9483 29.1692L50.2325 14.7917L55.942 14.7621ZM38.4583 14.7917H44.2566L45.8541 28.1633C46.002 29.3171 45.647 30.4708 44.8779 31.3288C44.227 32.0979 43.2804 32.5417 42.0675 32.5417C40.0854 32.5417 38.4583 30.7962 38.4583 28.6662V14.7917ZM25.1162 28.1633L26.7433 14.7917H32.5416V28.6662C32.5416 30.7962 30.9145 32.5417 28.7254 32.5417C27.7195 32.5417 26.8025 32.0979 26.0925 31.3288C25.3529 30.4708 24.9979 29.3171 25.1162 28.1633ZM11.9516 27.69L14.9395 14.7917H20.7675L19.0516 29.1692C18.815 31.0921 17.2766 32.5417 15.472 32.5417C14.0225 32.5417 13.1054 31.6837 12.7208 31.1512C11.922 30.2046 11.6558 28.9325 11.9516 27.69ZM14.7916 56.2083V38.3696C15.0283 38.3992 15.2354 38.4583 15.472 38.4583C18.0458 38.4583 20.3829 37.3933 22.0987 35.6479C23.8737 37.4229 26.2404 38.4583 28.9325 38.4583C31.5062 38.4583 33.8137 37.3933 35.5295 35.7071C37.275 37.3933 39.6416 38.4583 42.3041 38.4583C44.7891 38.4583 47.1558 37.4229 48.9308 35.6479C50.6466 37.3933 52.9837 38.4583 55.5575 38.4583C55.7941 38.4583 56.0012 38.3992 56.2379 38.3696V56.2083H14.7916Z" fill="#828D8C"/>
</svg>
